<?xml version="1.0" encoding="UTF-8"?>
<!DOCTYPE svg PUBLIC "-//W3C//DTD SVG 1.1//EN" "http://www.w3.org/Graphics/SVG/1.1/DTD/svg11.dtd">
<!-- Creator: CorelDRAW 2020 (64-Bit) -->
<svg xmlns="http://www.w3.org/2000/svg" xml:space="preserve" width="8.5in" height="11in" version="1.1" style="shape-rendering:geometricPrecision; text-rendering:geometricPrecision; image-rendering:optimizeQuality; fill-rule:evenodd; clip-rule:evenodd"
viewBox="0 0 8500 11000"
 xmlns:xlink="http://www.w3.org/1999/xlink"
 xmlns:xodm="http://www.corel.com/coreldraw/odm/2003">
 <defs>
  <style type="text/css">
   <![CDATA[
    .str0 {stroke:#373435;stroke-width:6.94;stroke-miterlimit:2.61313}
    .fil3 {fill:none}
    .fil0 {fill:#010101}
    .fil2 {fill:#2F6FF1}
    .fil1 {fill:#FEFEFE}
   ]]>
  </style>
   <clipPath id="id0">
    <path d="M4428.17 2377.37c1104.57,0 2000,895.43 2000,2000 0,1104.57 -895.43,2000 -2000,2000 -1104.57,0 -2000,-895.43 -2000,-2000 0,-1104.57 895.43,-2000 2000,-2000z"/>
   </clipPath>
 </defs>
 <g id="Layer_x0020_1">
  <metadata id="CorelCorpID_0Corel-Layer"/>
  <g>
  </g>
  <g style="clip-path:url(#id0)">
   <g>
    <g id="_2235944170784">
     <path class="fil0" d="M3552.77 5185.18c-12.24,-179.18 -13.93,-2090.08 6.1,-2162.9 240.02,-5.04 484.8,-0.72 725.33,-0.72 266.88,0 431.5,-17.5 615.13,105.18 146.64,97.96 237.51,265.71 232.37,481.67 -2.48,104.47 -31.33,201.53 -75.86,277.94 -51.83,88.94 -114.63,121.91 -162.69,181.09 33.41,28.88 82.7,48.1 120.83,77.19 110.41,84.22 190.03,223.91 208.15,371.71 29.83,243.32 -65.32,436.63 -210.67,547.69 -192.26,146.9 -393.25,122.69 -673.29,122.69 -257.65,0 -529.49,8.11 -785.4,-1.55zm1751.03 -1136.37c11.44,-80.98 50.91,-125.08 71.88,-203.85 79.71,-299.39 4.58,-451.77 -62.19,-667.69 112.47,53.85 221.88,290.35 247.7,449.86 56.7,350.29 -95.72,557.06 -91.2,597.87 56.26,110.07 123.76,157.63 164.45,312.92 101.3,386.57 -27.81,800.81 -382,997.33 -268.71,149.09 -490.43,122.03 -846.83,122.03 -290.24,0 -692.61,22.61 -972.83,-3.54l5.93 -189.29c289.45,-17.51 631.26,-2.08 926.43,-2.08 341.5,0 540.48,5.6 775.93,-154.27 534.77,-363.12 372.65,-1097.76 162.73,-1259.29zm-3043.24 2816.05c409.25,232.24 532.14,198.72 1052.3,198.72l2509.32 0c462.06,0 698.3,-8.48 1001.81,-248.84 218.68,-173.19 379.82,-457.61 379.48,-856.78l-0.03 -3058.94c-1.16,-295.5 -47.43,-294.01 -108.96,-501.45 -31.27,-30.54 -41.65,-64.57 -67.87,-105.62 -160.53,-251.19 -459.04,-425.96 -775.83,-463.28 -200.46,-23.61 -2587.98,-6.94 -2870.47,-7.93 -520.74,-1.82 -862.03,-25.27 -1187.08,251.33 -357.66,304.34 -376.22,603.09 -378.41,1023.88l0.15 2796.37c-0.09,333.25 46.05,558.42 257.34,800.2 65.63,75.09 129.72,109.34 188.25,172.34z"/>
     <path class="fil1" d="M4071 4332.81c121.78,-9.17 292.03,-6.11 416.22,-2.7 296.36,8.11 295.7,384.8 0.14,389.7 -130.69,2.17 -284.56,4.86 -418.77,-1.96l2.41 -385.04zm1.7 -837.95c236.55,-15.48 545.15,-50.04 537.76,205.16 -7.02,242.47 -314.63,203.47 -542.12,191.19l4.36 -396.35zm-519.93 1690.32c255.91,9.66 527.75,1.55 785.4,1.55 280.04,0 481.03,24.22 673.29,-122.69 145.35,-111.06 240.5,-304.37 210.67,-547.69 -18.12,-147.8 -97.74,-287.49 -208.15,-371.71 -38.13,-29.09 -87.42,-48.31 -120.83,-77.19 48.06,-59.19 110.85,-92.15 162.69,-181.09 44.54,-76.41 73.38,-173.47 75.86,-277.94 5.14,-215.96 -85.73,-383.71 -232.37,-481.67 -183.63,-122.68 -348.25,-105.18 -615.13,-105.18 -240.54,0 -485.31,-4.32 -725.33,0.72 -20.03,72.81 -18.34,1983.72 -6.1,2162.9z"/>
     <path class="fil2" d="M5303.8 4048.81c209.93,161.53 372.04,896.17 -162.73,1259.29 -235.44,159.87 -434.43,154.27 -775.93,154.27 -295.16,-0 -636.98,-15.43 -926.43,2.08l-5.93 189.29c280.21,26.15 682.59,3.54 972.83,3.54 356.41,0 578.12,27.06 846.83,-122.03 354.19,-196.52 483.3,-610.76 382,-997.33 -40.7,-155.29 -108.2,-202.85 -164.45,-312.92 -4.53,-40.81 147.9,-247.58 91.2,-597.87 -25.82,-159.51 -135.23,-396.01 -247.7,-449.86 66.77,215.93 141.9,368.3 62.19,667.69 -20.97,78.77 -60.44,122.86 -71.88,203.85z"/>
     <path class="fil0" d="M4068.59 4717.85c134.21,6.81 288.09,4.12 418.77,1.96 295.56,-4.9 296.22,-381.59 -0.14,-389.7 -124.19,-3.4 -294.44,-6.46 -416.22,2.7l-2.41 385.04z"/>
     <path class="fil0" d="M4068.33 3891.2c227.49,12.28 535.1,51.29 542.12,-191.19 7.39,-255.2 -301.21,-220.65 -537.76,-205.16l-4.36 396.35z"/>
    </g>
   </g>
  </g>
  <path class="fil3 str0" d="M4428.17 2377.37c1104.57,0 2000,895.43 2000,2000 0,1104.57 -895.43,2000 -2000,2000 -1104.57,0 -2000,-895.43 -2000,-2000 0,-1104.57 895.43,-2000 2000,-2000z"/>
 </g>
</svg>
