<?xml version="1.0" encoding="UTF-8"?>
<!DOCTYPE svg PUBLIC "-//W3C//DTD SVG 1.1//EN" "http://www.w3.org/Graphics/SVG/1.1/DTD/svg11.dtd">
<!-- Creator: CorelDRAW 2020 (64-Bit) -->
<svg xmlns="http://www.w3.org/2000/svg" xml:space="preserve" width="8.5in" height="11in" version="1.1" style="shape-rendering:geometricPrecision; text-rendering:geometricPrecision; image-rendering:optimizeQuality; fill-rule:evenodd; clip-rule:evenodd"
viewBox="0 0 8500 11000"
 xmlns:xlink="http://www.w3.org/1999/xlink"
 xmlns:xodm="http://www.corel.com/coreldraw/odm/2003">
 <defs>
  <style type="text/css">
   <![CDATA[
    .fil0 {fill:black;fill-rule:nonzero}
   ]]>
  </style>
 </defs>
 <g id="Layer_x0020_1">
  <metadata id="CorelCorpID_0Corel-Layer"/>
  <path id="users-solid-full.svg" class="fil0" d="M4456.87 2211.55c456.5,0 827.11,370.61 827.11,827.11 0,456.5 -370.61,827.11 -827.11,827.11 -456.5,0 -827.11,-370.61 -827.11,-827.11 0,-456.5 370.61,-827.11 827.11,-827.11zm-1781.48 572.62c316.53,0 572.61,256.09 572.61,572.62 0,316.53 -256.08,572.61 -572.61,572.61 -316.53,0 -572.62,-256.08 -572.62,-572.61 0,-316.53 256.09,-572.62 572.62,-572.62zm-763.49 2608.59c0,-562.28 455.71,-1017.99 1017.99,-1017.99 101.8,0 200.42,15.11 293.47,42.95 -261.66,292.67 -420.72,679.19 -420.72,1102.29l0 127.25c0,90.67 19.09,176.56 53.28,254.5l-689.52 0c-140.77,0 -254.5,-113.72 -254.5,-254.5l0 -254.5zm4145.91 508.99c34.2,-77.94 53.28,-163.83 53.28,-254.5l0 -127.25c0,-423.1 -159.06,-809.62 -420.72,-1102.29 93.05,-27.83 191.67,-42.95 293.47,-42.95 562.28,0 1017.99,455.71 1017.99,1017.99l0 254.5c0,140.77 -113.73,254.5 -254.5,254.5l-689.52 0zm-392.08 -2544.96c0,-316.53 256.08,-572.62 572.61,-572.62 316.53,0 572.62,256.09 572.62,572.62 0,316.53 -256.09,572.61 -572.62,572.61 -316.53,0 -572.61,-256.08 -572.61,-572.61zm-2481.35 2163.22c0,-703.05 569.44,-1272.48 1272.48,-1272.48 703.05,0 1272.48,569.44 1272.48,1272.48l0 127.25c0,140.77 -113.73,254.5 -254.5,254.5l-2035.98 0c-140.77,0 -254.5,-113.72 -254.5,-254.5l0 -127.25z"/>
 </g>
</svg>
