<?xml version="1.0" encoding="UTF-8"?>
<!DOCTYPE svg PUBLIC "-//W3C//DTD SVG 1.1//EN" "http://www.w3.org/Graphics/SVG/1.1/DTD/svg11.dtd">
<!-- Creator: CorelDRAW 2020 (64-Bit) -->
<svg xmlns="http://www.w3.org/2000/svg" xml:space="preserve" width="8.5in" height="11in" version="1.1" style="shape-rendering:geometricPrecision; text-rendering:geometricPrecision; image-rendering:optimizeQuality; fill-rule:evenodd; clip-rule:evenodd"
viewBox="0 0 8500 11000"
 xmlns:xlink="http://www.w3.org/1999/xlink"
 xmlns:xodm="http://www.corel.com/coreldraw/odm/2003">
 <defs>
  <style type="text/css">
   <![CDATA[
    .fil0 {fill:black}
   ]]>
  </style>
 </defs>
 <g id="Layer_x0020_1">
  <metadata id="CorelCorpID_0Corel-Layer"/>
  <path class="fil0" d="M3827.38 4407.76c199.63,-55.74 375.44,91.16 411.72,250.76 47.26,207.93 -89.36,362.76 -250.47,403.07 -418.47,104.7 -599.49,-531.46 -161.24,-653.83zm-25.94 -278.84c-832.89,194.57 -552.07,1358.41 234.77,1209.79 283.09,-53.47 555.19,-361.49 480.11,-719.98 -58.69,-280.25 -350.26,-574.98 -714.88,-489.8z"/>
  <path class="fil0" d="M3680.09 5884.82c71.82,-17 372.21,-17.95 453.82,-3.69 234.61,41.02 433.94,247.8 455.88,481.45 12.84,136.74 -2.96,329.54 182.57,285.53 120.6,-28.61 114.11,-226.51 89.48,-359.15 -151.88,-817.91 -1146.81,-807.97 -1526.56,-565.46 -173.47,110.78 -334.96,305.89 -376.05,568.96 -22.62,144.82 -42.65,323.73 88.24,355.03 79.12,18.93 133.95,-19.28 158.61,-65.65 45.13,-84.86 -63.38,-569.79 474.01,-697.02z"/>
  <path class="fil0" d="M4765.08 4648.77c371.62,79.98 296.84,398.09 130.35,481.84 -97.72,49.15 -128.24,23.73 -225.89,13.43l-155.12 216.19c151.96,147.09 678.77,106.35 778.21,-329.73 86.03,-377.24 -224.11,-684.98 -577.69,-649.39 -10.94,46.32 39.3,192.95 50.14,267.67z"/>
  <path class="fil0" d="M3307.72 5360.22l-154.85 -210.91c-103.23,-0.39 -117.44,38.24 -228.54,-19.14 -62.08,-32.06 -108.95,-85.19 -125.52,-164.22 -41.42,-197.52 96.72,-284.17 254.73,-316.39 12.65,-67.22 65.88,-226.08 50.81,-268.82 -602.25,-51.91 -809.95,730.8 -310.83,992.45 139.56,73.17 402.33,97.3 514.21,-12.98z"/>
  <path class="fil0" d="M4835.44 5685.23l171.85 278.84c52.5,96.16 338.79,126.17 368,522.85 16.39,222.65 188.78,175.69 236.21,126.41 192.23,-199.71 -206.82,-981.46 -776.06,-928.1z"/>
  <path class="fil0" d="M2170 6486.61c-0.21,214.4 212.47,197.92 257.87,94.2 54.62,-124.77 -2.16,-217.29 111.33,-375.06 33.2,-46.15 77.27,-94.99 121.32,-129.04 36.29,-28.05 113.36,-52.93 142.39,-94.27 27.98,-39.85 53.56,-110.29 88.04,-161.47 32.1,-47.65 78.81,-94.2 91.5,-135.85 -370.39,-32.44 -812,337.8 -812.45,801.48z"/>
 </g>
</svg>
